<svg width="10" height="12" viewBox="0 0 10 12" fill="none" xmlns="http://www.w3.org/2000/svg">
<path d="M4.95 11.15C4.17 11.15 3.455 10.93 2.805 10.49C2.165 10.05 1.655 9.43 1.275 8.63C0.895 7.82 0.705 6.87 0.705 5.78C0.705 4.69 0.89 3.745 1.26 2.945C1.64 2.145 2.15 1.53 2.79 1.1C3.43 0.659999 4.135 0.439999 4.905 0.439999C5.695 0.439999 6.41 0.659999 7.05 1.1C7.69 1.53 8.195 2.145 8.565 2.945C8.945 3.745 9.135 4.695 9.135 5.795C9.135 6.885 8.945 7.835 8.565 8.645C8.195 9.445 7.69 10.065 7.05 10.505C6.42 10.935 5.72 11.15 4.95 11.15ZM4.92 9.815C5.47 9.815 5.95 9.665 6.36 9.365C6.78 9.055 7.11 8.6 7.35 8C7.59 7.4 7.71 6.66 7.71 5.78C7.71 4.9 7.59 4.165 7.35 3.575C7.11 2.975 6.78 2.525 6.36 2.225C5.94 1.915 5.455 1.76 4.905 1.76C4.365 1.76 3.885 1.915 3.465 2.225C3.045 2.525 2.715 2.975 2.475 3.575C2.245 4.165 2.13 4.9 2.13 5.78C2.13 6.66 2.245 7.4 2.475 8C2.715 8.6 3.045 9.055 3.465 9.365C3.885 9.665 4.37 9.815 4.92 9.815Z" fill="#787878"/>
</svg>
