<svg width="10" height="18" viewBox="0 0 10 18" fill="none" xmlns="http://www.w3.org/2000/svg">
<g clip-path="url(#clip0_1_681)">
<path d="M6.60295 8.28595C6.60295 8.28595 6.72198 8.16692 6.96004 7.92885C7.1981 7.69079 7.31713 7.2353 7.31713 6.56239C7.31713 5.88947 7.07907 5.31495 6.60295 4.83883C6.12683 4.36271 5.55231 4.12464 4.87939 4.12464C4.20647 4.12464 3.63195 4.36271 3.15583 4.83883C2.67971 5.31495 2.44165 5.88947 2.44165 6.56239C2.44165 7.2353 2.67971 7.80982 3.15583 8.28595C3.63195 8.76207 4.20647 9.00013 4.87939 9.00013C5.55231 9.00013 6.12683 8.76207 6.60295 8.28595ZM9.75487 6.56239C9.75487 7.25435 9.65013 7.82252 9.44063 8.2669L5.97447 15.6373C5.8729 15.8468 5.72213 16.0118 5.52215 16.1324C5.32218 16.253 5.10793 16.3134 4.87939 16.3134C4.65085 16.3134 4.4366 16.253 4.23663 16.1324C4.03666 16.0118 3.88906 15.8468 3.79383 15.6373L0.318146 8.2669C0.108653 7.82252 0.00390625 7.25435 0.00390625 6.56239C0.00390625 5.21655 0.480028 4.06751 1.43227 3.11527C2.38451 2.16302 3.53355 1.6869 4.87939 1.6869C6.22523 1.6869 7.37427 2.16302 8.32651 3.11527C9.27875 4.06751 9.75487 5.21655 9.75487 6.56239Z" fill="white"/>
</g>
<defs>
<clipPath id="clip0_1_681">
<rect width="9.76072" height="17.0642" fill="white" transform="matrix(1 0 0 -1 0 17.5321)"/>
</clipPath>
</defs>
</svg>
