<svg width="21" height="15" viewBox="0 0 21 15" fill="none" xmlns="http://www.w3.org/2000/svg">
<path d="M20.6064 10.9935H20.2617V8.37432C20.2617 8.00672 20.1354 7.69656 19.8827 7.44384C19.6299 7.19111 19.3198 7.06475 18.9522 7.06475V1.61969C18.9522 1.25209 18.8258 0.941925 18.5731 0.6892C18.3204 0.436476 18.0102 0.310114 17.6426 0.310114H4.13333C3.76573 0.310114 3.45557 0.436476 3.20284 0.6892C2.95012 0.941925 2.82376 1.25209 2.82376 1.61969V7.06475C2.45616 7.06475 2.146 7.19111 1.89327 7.44384C1.64055 7.69656 1.51418 8.00672 1.51418 8.37432V10.9935H1.16956C1.07766 10.9935 1.00873 11.0164 0.962785 11.0624C0.916835 11.1083 0.89386 11.1773 0.89386 11.2692V12.5787C0.89386 12.6706 0.916835 12.7511 0.962785 12.82C1.00873 12.8889 1.07766 12.9234 1.16956 12.9234H1.51418V14.164C1.51418 14.2559 1.54865 14.3363 1.61757 14.4052C1.6865 14.4742 1.76691 14.5086 1.85881 14.5086H2.82376C3.00756 14.5086 3.09946 14.4167 3.09946 14.2329L3.37516 12.9234H18.4008L18.6765 14.2329C18.6765 14.4167 18.7684 14.5086 18.9522 14.5086H19.9171C20.009 14.5086 20.0894 14.4742 20.1584 14.4052C20.2273 14.3363 20.2617 14.2559 20.2617 14.164V12.9234H20.6064C20.6983 12.9234 20.7672 12.8889 20.8131 12.82C20.8591 12.7511 20.8821 12.6706 20.8821 12.5787V11.2692C20.8821 11.1773 20.8591 11.1083 20.8131 11.0624C20.7672 11.0164 20.6983 10.9935 20.6064 10.9935ZM3.44408 1.61969C3.44408 1.43589 3.51301 1.27506 3.65085 1.13721C3.7887 0.999363 3.94953 0.930438 4.13333 0.930438H17.6426C17.8264 0.930438 17.9872 0.999363 18.1251 1.13721C18.2629 1.27506 18.3319 1.43589 18.3319 1.61969V7.06475H17.6426V5.8241C17.6426 5.4565 17.5162 5.14634 17.2635 4.89362C17.0108 4.64089 16.7236 4.51453 16.402 4.51453H12.4732C12.1516 4.51453 11.8644 4.64089 11.6117 4.89362C11.359 5.14634 11.2326 5.4565 11.2326 5.8241V7.06475H10.5433V5.8241C10.5433 5.4565 10.417 5.14634 10.1643 4.89362C9.91153 4.64089 9.62434 4.51453 9.30269 4.51453H5.37398C5.05233 4.51453 4.76514 4.64089 4.51242 4.89362C4.25969 5.14634 4.13333 5.4565 4.13333 5.8241V7.06475H3.44408V1.61969ZM17.0223 5.8241V7.06475H11.8529V5.8241C11.8529 5.6403 11.9218 5.47948 12.0597 5.34163C12.1975 5.20378 12.3354 5.13485 12.4732 5.13485H16.402C16.5858 5.13485 16.7351 5.20378 16.85 5.34163C16.9648 5.47948 17.0223 5.6403 17.0223 5.8241ZM9.92302 5.8241V7.06475H4.75365V5.8241C4.75365 5.6403 4.81109 5.47948 4.92596 5.34163C5.04084 5.20378 5.19018 5.13485 5.37398 5.13485H9.30269C9.44054 5.13485 9.57839 5.20378 9.71624 5.34163C9.85409 5.47948 9.92302 5.6403 9.92302 5.8241ZM2.13451 8.37432C2.13451 8.19052 2.20343 8.04119 2.34128 7.92631C2.47913 7.81144 2.63996 7.754 2.82376 7.754H18.9522C19.136 7.754 19.2968 7.81144 19.4347 7.92631C19.5725 8.04119 19.6414 8.19052 19.6414 8.37432V10.9935H2.13451V8.37432ZM2.54806 13.8883H2.13451V12.9234H2.75483L2.54806 13.8883ZM19.6414 13.8883H19.2279L19.0211 12.9234H19.6414V13.8883ZM20.2617 12.2341H1.51418V11.6138H20.2617V12.2341Z" fill="#696969"/>
</svg>
