<svg width="11" height="16" viewBox="0 0 11 16" fill="none" xmlns="http://www.w3.org/2000/svg">
<path d="M7.56103 7.58479C7.56103 7.58479 7.68123 7.46459 7.92162 7.2242C8.16201 6.98381 8.28221 6.52386 8.28221 5.84436C8.28221 5.16485 8.04182 4.58471 7.56103 4.10393C7.08025 3.62314 6.50011 3.38275 5.8206 3.38275C5.1411 3.38275 4.56096 3.62314 4.08017 4.10393C3.59939 4.58471 3.359 5.16485 3.359 5.84436C3.359 6.52386 3.59939 7.104 4.08017 7.58479C4.56096 8.06557 5.1411 8.30596 5.8206 8.30596C6.50011 8.30596 7.08025 8.06557 7.56103 7.58479ZM10.7438 5.84436C10.7438 6.54309 10.638 7.11682 10.4265 7.56555L6.9264 15.0081C6.82384 15.2196 6.67159 15.3863 6.46966 15.5081C6.26773 15.6299 6.05138 15.6908 5.8206 15.6908C5.58983 15.6908 5.37348 15.6299 5.17155 15.5081C4.96962 15.3863 4.82058 15.2196 4.72442 15.0081L1.21472 7.56555C1.00317 7.11682 0.8974 6.54309 0.8974 5.84436C0.8974 4.48535 1.37818 3.32506 2.33975 2.3635C3.30131 1.40193 4.4616 0.92115 5.8206 0.92115C7.17961 0.92115 8.3399 1.40193 9.30146 2.3635C10.263 3.32506 10.7438 4.48535 10.7438 5.84436Z" fill="#666666"/>
</svg>
