<svg width="21" height="21" viewBox="0 0 21 21" fill="none" xmlns="http://www.w3.org/2000/svg">
<path d="M19.6419 11.0988H19.2973V3.86165C19.2973 2.9886 18.9986 2.2534 18.4013 1.65605C17.8039 1.0587 17.0917 0.760027 16.2646 0.760027C15.4375 0.760027 14.7827 1.01275 14.3003 1.5182C13.8178 2.02365 13.5306 2.68992 13.4387 3.51702C13.0252 3.60892 12.692 3.8157 12.4393 4.13735C12.1866 4.459 12.0602 4.8266 12.0602 5.24014C12.0602 5.46989 12.1751 5.58477 12.4048 5.58477H15.1618C15.3916 5.58477 15.5065 5.46989 15.5065 5.24014C15.5065 4.8266 15.3801 4.459 15.1274 4.13735C14.8746 3.8157 14.5415 3.6319 14.128 3.58595C14.1739 2.9886 14.3807 2.48315 14.7483 2.0696C15.1159 1.65605 15.6213 1.44928 16.2646 1.44928C16.9079 1.44928 17.4593 1.67903 17.9188 2.13853C18.3783 2.59802 18.6081 3.1724 18.6081 3.86165V11.0988H8.26934C8.17744 10.6852 7.97066 10.3521 7.64901 10.0993C7.32736 9.84662 6.95976 9.72026 6.54622 9.72026C6.17862 9.26076 5.71912 9.03101 5.16772 9.03101C4.84607 9.03101 4.54739 9.11142 4.27169 9.27225C3.996 9.43307 3.78922 9.65134 3.65137 9.92704C3.32972 9.78919 3.03105 9.72026 2.75535 9.72026C2.3418 9.72026 1.9742 9.84662 1.65255 10.0993C1.3309 10.3521 1.12413 10.6852 1.03223 11.0988C0.756526 11.0988 0.515289 11.2021 0.308514 11.4089C0.101739 11.6157 -0.00164795 11.8569 -0.00164795 12.1326C-0.00164795 12.4083 0.101739 12.6496 0.308514 12.8563C0.515289 13.0631 0.756526 13.1665 1.03223 13.1665H1.44577L2.41072 16.8195C2.54857 17.3709 2.83576 17.8189 3.27228 18.1636C3.70881 18.5082 4.20277 18.6805 4.75417 18.6805H5.02987L4.54739 19.5765C4.50144 19.6684 4.48996 19.7603 4.51293 19.8522C4.53591 19.9441 4.58186 20.0016 4.65078 20.0245C4.71971 20.0475 4.80012 20.059 4.89202 20.059C4.98392 20.059 5.07582 19.9901 5.16772 19.8522L5.71912 18.6805H15.2997L15.92 19.8522C15.966 19.9901 16.0464 20.059 16.1612 20.059C16.2761 20.059 16.3565 20.036 16.4025 19.9901C16.4484 19.9441 16.4829 19.8752 16.5059 19.7833C16.5288 19.6914 16.5173 19.5995 16.4714 19.5076L16.0578 18.6805C16.5633 18.6805 17.0343 18.5082 17.4708 18.1636C17.9073 17.8189 18.1945 17.3939 18.3324 16.8884L19.2284 13.1665H19.6419C19.9176 13.1665 20.1589 13.0631 20.3657 12.8563C20.5724 12.6496 20.6758 12.4083 20.6758 12.1326C20.6758 11.8569 20.5724 11.6157 20.3657 11.4089C20.1589 11.2021 19.9176 11.0988 19.6419 11.0988ZM14.8172 4.89552H12.8184C12.8643 4.71172 12.9907 4.5509 13.1975 4.41305C13.4042 4.2752 13.611 4.20627 13.8178 4.20627C14.0246 4.20627 14.2199 4.26371 14.4037 4.37858C14.5875 4.49346 14.7253 4.66577 14.8172 4.89552ZM2.75535 10.4095C3.077 10.4095 3.3527 10.5474 3.58245 10.8231C3.67435 10.915 3.78922 10.9379 3.92707 10.892C4.06492 10.846 4.13384 10.7541 4.13384 10.6163C4.22574 10.3406 4.36359 10.1223 4.54739 9.9615C4.73119 9.80067 4.93797 9.72026 5.16772 9.72026C5.62722 9.72026 5.94887 9.88109 6.13267 10.2027C6.13267 10.2946 6.16713 10.3521 6.23605 10.375C6.30498 10.398 6.38539 10.4095 6.47729 10.4095H6.61514C6.79894 10.4095 6.98274 10.4669 7.16654 10.5818C7.35034 10.6967 7.46521 10.869 7.51116 11.0988H1.7904C1.8823 10.869 2.00866 10.6967 2.16949 10.5818C2.33031 10.4669 2.5256 10.4095 2.75535 10.4095ZM17.712 16.6817C17.5742 17.0493 17.3559 17.3594 17.0573 17.6122C16.7586 17.8649 16.4025 17.9912 15.9889 17.9912H4.75417C4.34062 17.9912 3.98451 17.8649 3.68583 17.6122C3.38716 17.3594 3.19187 17.0493 3.09997 16.6817L2.20395 13.1665H18.5391L17.712 16.6817ZM19.6419 12.4773H18.9527H1.03223C0.802476 12.4773 0.687601 12.3624 0.687601 12.1326C0.687601 11.9029 0.802476 11.788 1.03223 11.788H19.6419C19.8717 11.788 19.9866 11.9029 19.9866 12.1326C19.9866 12.3624 19.8717 12.4773 19.6419 12.4773ZM12.4048 7.10112C12.6346 7.10112 12.7495 7.00922 12.7495 6.82542V6.61864C12.7495 6.38889 12.6346 6.27402 12.4048 6.27402C12.1751 6.27402 12.0602 6.38889 12.0602 6.61864V6.75649C12.0602 6.98624 12.1751 7.10112 12.4048 7.10112ZM12.4048 8.75531C12.4967 8.75531 12.5771 8.70936 12.6461 8.61746C12.715 8.52556 12.7495 8.45664 12.7495 8.41069V7.99714C12.7495 7.76739 12.6346 7.65251 12.4048 7.65251C12.1751 7.65251 12.0602 7.76739 12.0602 7.99714V8.41069C12.0602 8.64044 12.1751 8.75531 12.4048 8.75531ZM12.4048 10.0649C12.6346 10.0649 12.7495 9.95001 12.7495 9.72026V9.58241C12.7495 9.35266 12.6346 9.23779 12.4048 9.23779C12.1751 9.23779 12.0602 9.35266 12.0602 9.58241V9.72026C12.0602 9.95001 12.1751 10.0649 12.4048 10.0649ZM13.7833 7.10112C14.0131 7.10112 14.128 7.00922 14.128 6.82542V6.61864C14.128 6.38889 14.0131 6.27402 13.7833 6.27402C13.5536 6.27402 13.4387 6.38889 13.4387 6.61864V6.75649C13.4387 6.98624 13.5536 7.10112 13.7833 7.10112ZM13.4387 8.34176C13.4387 8.57151 13.5536 8.68639 13.7833 8.68639C13.8752 8.68639 13.9556 8.65193 14.0246 8.583C14.0935 8.51408 14.128 8.43366 14.128 8.34176V7.99714C14.128 7.76739 14.0131 7.65251 13.7833 7.65251C13.5536 7.65251 13.4387 7.76739 13.4387 7.99714V8.34176ZM13.4387 9.72026C13.4387 9.95001 13.5536 10.0649 13.7833 10.0649C14.0131 10.0649 14.128 9.95001 14.128 9.72026V9.51349C14.128 9.28374 14.0131 9.16886 13.7833 9.16886C13.5536 9.16886 13.4387 9.28374 13.4387 9.51349V9.72026ZM15.1618 7.10112C15.3916 7.10112 15.5065 7.00922 15.5065 6.82542V6.61864C15.5065 6.38889 15.3916 6.27402 15.1618 6.27402C14.9321 6.27402 14.8172 6.38889 14.8172 6.61864V6.75649C14.8172 6.98624 14.9321 7.10112 15.1618 7.10112ZM14.8172 8.34176C14.8172 8.57151 14.9321 8.68639 15.1618 8.68639C15.2537 8.68639 15.3341 8.65193 15.4031 8.583C15.472 8.51408 15.5065 8.43366 15.5065 8.34176V7.99714C15.5065 7.76739 15.3916 7.65251 15.1618 7.65251C14.9321 7.65251 14.8172 7.76739 14.8172 7.99714V8.34176ZM14.8172 9.72026C14.8172 9.95001 14.9321 10.0649 15.1618 10.0649C15.3916 10.0649 15.5065 9.95001 15.5065 9.72026V9.51349C15.5065 9.28374 15.3916 9.16886 15.1618 9.16886C14.9321 9.16886 14.8172 9.28374 14.8172 9.51349V9.72026Z" fill="#696969"/>
</svg>
